<?xml version="1.0" encoding="UTF-8" standalone="no"?>
<svg
   xmlns:dc="http://purl.org/dc/elements/1.1/"
   xmlns:cc="http://creativecommons.org/ns#"
   xmlns:rdf="http://www.w3.org/1999/02/22-rdf-syntax-ns#"
   xmlns:svg="http://www.w3.org/2000/svg"
   xmlns="http://www.w3.org/2000/svg"
   xmlns:sodipodi="http://sodipodi.sourceforge.net/DTD/sodipodi-0.dtd"
   xmlns:inkscape="http://www.inkscape.org/namespaces/inkscape"
   version="1.1"
   viewBox="0 0 757.44885 135.25725"
   stroke-miterlimit="10"
   id="svg85"
   sodipodi:docname="CGet.svg"
   width="757.44885"
   height="135.25725"
   style="fill:none;stroke:none;stroke-linecap:square;stroke-miterlimit:10"
   inkscape:version="0.92.3 (2405546, 2018-03-11)">
  <metadata
     id="metadata91">
    <rdf:RDF>
      <cc:Work
         rdf:about="">
        <dc:format>image/svg+xml</dc:format>
        <dc:type
           rdf:resource="http://purl.org/dc/dcmitype/StillImage" />
        <dc:title></dc:title>
      </cc:Work>
    </rdf:RDF>
  </metadata>
  <defs
     id="defs89" />
  <sodipodi:namedview
     pagecolor="#ffffff"
     bordercolor="#666666"
     borderopacity="1"
     objecttolerance="10"
     gridtolerance="10"
     guidetolerance="10"
     inkscape:pageopacity="0"
     inkscape:pageshadow="2"
     inkscape:window-width="1920"
     inkscape:window-height="1016"
     id="namedview87"
     showgrid="false"
     fit-margin-top="0"
     fit-margin-left="0"
     fit-margin-right="0"
     fit-margin-bottom="0"
     inkscape:zoom="0.325"
     inkscape:cx="393.73915"
     inkscape:cy="567.93945"
     inkscape:window-x="0"
     inkscape:window-y="27"
     inkscape:window-maximized="1"
     inkscape:current-layer="svg85" />
  <clipPath
     id="p.0">
    <path
       d="M 0,0 H 960 V 720 H 0 Z"
       id="path2"
       inkscape:connector-curvature="0"
       style="clip-rule:nonzero" />
  </clipPath>
  <path
     style="fill:#000000;fill-opacity:0;fill-rule:evenodd"
     inkscape:connector-curvature="0"
     id="path5"
     d="M -92.414696,-423.45143 H 867.5853 v 720 H -92.414696 Z" />
  <path
     style="fill:#cfe2f3;fill-rule:evenodd"
     inkscape:connector-curvature="0"
     id="path51"
     d="m 1,28.27339 v 0 C 1,16.56648 10.490354,7.07612 22.197274,7.07612 H 216.21217 c 5.62189,0 11.01349,2.23328 14.98874,6.20853 3.97528,3.97528 6.20855,9.36688 6.20855,14.98874 v 84.78659 c 0,11.70691 -9.49035,21.19727 -21.19729,21.19727 H 22.197274 C 10.490344,134.25725 1,124.76689 1,113.05998 Z" />
  <path
     style="fill-rule:evenodd;stroke:#000000;stroke-width:2;stroke-linecap:butt;stroke-linejoin:round"
     inkscape:connector-curvature="0"
     id="path53"
     d="m 1,28.27339 v 0 C 1,16.56648 10.490354,7.07612 22.197274,7.07612 H 216.21217 c 5.62189,0 11.01349,2.23328 14.98874,6.20853 3.97528,3.97528 6.20855,9.36688 6.20855,14.98874 v 84.78659 c 0,11.70691 -9.49035,21.19727 -21.19729,21.19727 H 22.197274 C 10.490344,134.25725 1,124.76689 1,113.05998 Z" />
  <path
     style="fill:#000000;fill-rule:nonzero"
     inkscape:connector-curvature="0"
     id="path55"
     d="M 44.865774,55.58669 V 42.22731 h 1.76562 v 13.35938 z m 4.88643,0 V 42.22731 h 5.04687 q 1.32813,0 2.03125,0.125 0.96875,0.17188 1.64063,0.64063 0.67187,0.45312 1.07812,1.28125 0.40625,0.82812 0.40625,1.82812 0,1.70313 -1.09375,2.89063 -1.07812,1.17187 -3.92187,1.17187 h -3.42188 v 5.42188 z m 1.76562,-7 h 3.45313 q 1.71875,0 2.4375,-0.64063 0.71875,-0.64062 0.71875,-1.79687 0,-0.84375 -0.42188,-1.4375 -0.42187,-0.59375 -1.125,-0.78125 -0.4375,-0.125 -1.64062,-0.125 h -3.42188 z m 15.77402,-0.8125 v -1.85938 h 1.85938 v 1.85938 z m 0,7.8125 v -1.875 h 1.85938 v 1.875 z m 15.63223,0 h -1.64062 V 45.13356 q -0.59375,0.5625 -1.5625,1.14063 -0.95313,0.5625 -1.71875,0.84375 v -1.59375 q 1.375,-0.64063 2.40625,-1.5625 1.03125,-0.92188 1.45312,-1.78125 h 1.0625 z m 4.43822,-3.09375 1.57813,-0.14063 q 0.20312,1.10938 0.76562,1.60938 0.5625,0.5 1.45313,0.5 0.75,0 1.3125,-0.34375 0.57812,-0.34375 0.9375,-0.92188 0.375,-0.57812 0.60937,-1.5625 0.25,-0.98437 0.25,-2 0,-0.10937 0,-0.32812 -0.5,0.78125 -1.35937,1.26562 -0.84375,0.48438 -1.82813,0.48438 -1.67187,0 -2.8125,-1.20313 -1.14062,-1.20312 -1.14062,-3.17187 0,-2.03125 1.1875,-3.26563 1.20312,-1.23437 3,-1.23437 1.3125,0 2.39062,0.70312 1.07813,0.70313 1.64063,2 0.5625,1.29688 0.5625,3.75 0,2.5625 -0.5625,4.07813 -0.5625,1.51562 -1.65625,2.3125 -1.09375,0.79687 -2.57813,0.79687 -1.5625,0 -2.5625,-0.875 -0.98437,-0.875 -1.1875,-2.45312 z m 6.71875,-5.89063 q 0,-1.40625 -0.75,-2.23437 -0.75,-0.82813 -1.8125,-0.82813 -1.09375,0 -1.90625,0.89063 -0.8125,0.89062 -0.8125,2.3125 0,1.28125 0.76563,2.07812 0.78125,0.79688 1.90625,0.79688 1.14062,0 1.875,-0.79688 0.73437,-0.79687 0.73437,-2.21875 z m 12.031966,7.40625 v 1.57813 h -8.828126 q -0.0156,-0.59375 0.1875,-1.14063 0.34375,-0.90625 1.07813,-1.78125 0.75,-0.875 2.156246,-2.01562 2.17187,-1.78125 2.9375,-2.82813 0.76562,-1.04687 0.76562,-1.96875 0,-0.98437 -0.70312,-1.64062 -0.6875,-0.67188 -1.8125,-0.67188 -1.1875,0 -1.906246,0.71875 -0.70313,0.70313 -0.70313,1.95313 l -1.6875,-0.17188 q 0.17188,-1.89062 1.29688,-2.875 1.140616,-0.98437 3.031246,-0.98437 1.92187,0 3.04687,1.0625 1.125,1.0625 1.125,2.64062 0,0.79688 -0.32812,1.57813 -0.32813,0.78125 -1.09375,1.64062 -0.75,0.84375 -2.53125,2.34375 -1.46875,1.23438 -1.89063,1.6875 -0.421866,0.4375 -0.687496,0.875 z m 2.67259,1.57813 v -1.875 h 1.875 v 1.875 z m 10.44893,0 H 117.5939 V 45.13356 q -0.59375,0.5625 -1.5625,1.14063 -0.95312,0.5625 -1.71875,0.84375 v -1.59375 q 1.375,-0.64063 2.40625,-1.5625 1.03125,-0.92188 1.45313,-1.78125 h 1.0625 z m 12.70384,-10.07813 -1.625,0.125 q -0.21875,-0.96875 -0.625,-1.40625 -0.65625,-0.70312 -1.64062,-0.70312 -0.78125,0 -1.375,0.4375 -0.76563,0.5625 -1.21875,1.65625 -0.45313,1.07812 -0.46875,3.07812 0.59375,-0.89062 1.45312,-1.32812 0.85938,-0.4375 1.79688,-0.4375 1.64062,0 2.78125,1.20312 1.15625,1.20313 1.15625,3.10938 0,1.26562 -0.54688,2.34375 -0.53125,1.07812 -1.48437,1.65625 -0.9375,0.57812 -2.14063,0.57812 -2.0625,0 -3.35937,-1.5 -1.28125,-1.51562 -1.28125,-4.98437 0,-3.875 1.42187,-5.625 1.25,-1.53125 3.375,-1.53125 1.5625,0 2.5625,0.89062 1.01563,0.875 1.21875,2.4375 z m -6.6875,5.75 q 0,0.84375 0.35938,1.625 0.35937,0.76563 1,1.17188 0.64062,0.40625 1.35937,0.40625 1.03125,0 1.78125,-0.82813 0.75,-0.84375 0.75,-2.28125 0,-1.39062 -0.73437,-2.1875 -0.73438,-0.79687 -1.85938,-0.79687 -1.10937,0 -1.89062,0.79687 -0.76563,0.79688 -0.76563,2.09375 z m 11.07884,-2.90625 q -1.01562,-0.375 -1.51562,-1.0625 -0.48438,-0.70312 -0.48438,-1.67187 0,-1.45313 1.04688,-2.4375 1.04687,-1 2.78125,-1 1.75,0 2.8125,1.01562 1.07812,1.01563 1.07812,2.46875 0,0.9375 -0.5,1.625 -0.48437,0.6875 -1.46875,1.0625 1.21875,0.39063 1.85938,1.28125 0.65625,0.89063 0.65625,2.14063 0,1.70312 -1.21875,2.875 -1.21875,1.17187 -3.1875,1.17187 -1.98438,0 -3.20313,-1.17187 -1.20312,-1.17188 -1.20312,-2.92188 0,-1.3125 0.65625,-2.1875 0.67187,-0.875 1.89062,-1.1875 z m -0.32812,-2.78125 q 0,0.9375 0.60937,1.54688 0.60938,0.59375 1.59375,0.59375 0.9375,0 1.54688,-0.59375 0.60937,-0.59375 0.60937,-1.45313 0,-0.90625 -0.625,-1.51562 -0.625,-0.625 -1.5625,-0.625 -0.9375,0 -1.5625,0.60937 -0.60937,0.59375 -0.60937,1.4375 z m -0.53125,6.15625 q 0,0.70313 0.32812,1.35938 0.34375,0.65625 1,1.01562 0.65625,0.35938 1.40625,0.35938 1.17188,0 1.9375,-0.75 0.76563,-0.75 0.76563,-1.92188 0,-1.1875 -0.79688,-1.95312 -0.78125,-0.78125 -1.95312,-0.78125 -1.15625,0 -1.92188,0.76562 -0.76562,0.76563 -0.76562,1.90625 z m 9.62573,3.85938 v -1.875 h 1.875 v 1.875 z m 4.27704,-3.53125 1.64062,-0.21875 q 0.28125,1.40625 0.95313,2.01562 0.6875,0.60938 1.65625,0.60938 1.15625,0 1.95312,-0.79688 0.79688,-0.79687 0.79688,-1.98437 0,-1.125 -0.73438,-1.85938 -0.73437,-0.73437 -1.875,-0.73437 -0.46875,0 -1.15625,0.17187 l 0.1875,-1.4375 q 0.15625,0.0156 0.26563,0.0156 1.04687,0 1.875,-0.54688 0.84375,-0.54687 0.84375,-1.67187 0,-0.90625 -0.60938,-1.5 -0.60937,-0.59375 -1.57812,-0.59375 -0.95313,0 -1.59375,0.60937 -0.64063,0.59375 -0.8125,1.79688 l -1.64063,-0.29688 q 0.29688,-1.64062 1.35938,-2.54687 1.0625,-0.90625 2.65625,-0.90625 1.09375,0 2,0.46875 0.92187,0.46875 1.40625,1.28125 0.5,0.8125 0.5,1.71875 0,0.85937 -0.46875,1.57812 -0.46875,0.70313 -1.375,1.125 1.1875,0.28125 1.84375,1.14063 0.65625,0.85937 0.65625,2.15625 0,1.73437 -1.28125,2.95312 -1.26563,1.21875 -3.21875,1.21875 -1.76563,0 -2.92188,-1.04687 -1.15625,-1.04688 -1.32812,-2.71875 z m 10.37573,0.0312 1.71875,-0.14063 q 0.1875,1.25 0.875,1.89063 0.70313,0.625 1.6875,0.625 1.1875,0 2,-0.89063 0.82813,-0.89062 0.82813,-2.35937 0,-1.40625 -0.79688,-2.21875 -0.78125,-0.8125 -2.0625,-0.8125 -0.78125,0 -1.42187,0.35937 -0.64063,0.35938 -1,0.9375 l -1.54688,-0.20312 1.29688,-6.85938 h 6.64062 v 1.5625 h -5.32812 l -0.71875,3.59375 q 1.20312,-0.84375 2.51562,-0.84375 1.75,0 2.95313,1.21875 1.20312,1.20313 1.20312,3.10938 0,1.8125 -1.04687,3.14062 -1.29688,1.625 -3.51563,1.625 -1.8125,0 -2.96875,-1.01562 -1.15625,-1.03125 -1.3125,-2.71875 z m 11.28195,3.5 v -1.875 h 1.875 v 1.875 z m 12.77707,-10.07813 -1.625,0.125 q -0.21875,-0.96875 -0.625,-1.40625 -0.65625,-0.70312 -1.64062,-0.70312 -0.78125,0 -1.375,0.4375 -0.76563,0.5625 -1.21875,1.65625 -0.45313,1.07812 -0.46875,3.07812 0.59375,-0.89062 1.45312,-1.32812 0.85938,-0.4375 1.79688,-0.4375 1.64062,0 2.78125,1.20312 1.15625,1.20313 1.15625,3.10938 0,1.26562 -0.54688,2.34375 -0.53125,1.07812 -1.48437,1.65625 -0.9375,0.57812 -2.14063,0.57812 -2.0625,0 -3.35937,-1.5 -1.28125,-1.51562 -1.28125,-4.98437 0,-3.875 1.42187,-5.625 1.25,-1.53125 3.375,-1.53125 1.5625,0 2.5625,0.89062 1.01563,0.875 1.21875,2.4375 z m -6.6875,5.75 q 0,0.84375 0.35938,1.625 0.35937,0.76563 1,1.17188 0.64062,0.40625 1.35937,0.40625 1.03125,0 1.78125,-0.82813 0.75,-0.84375 0.75,-2.28125 0,-1.39062 -0.73437,-2.1875 -0.73438,-0.79687 -1.85938,-0.79687 -1.10937,0 -1.89062,0.79687 -0.76563,0.79688 -0.76563,2.09375 z m 13.8132,4.32813 v -3.20313 h -5.79687 v -1.5 l 6.09375,-8.65625 h 1.34375 v 8.65625 h 1.79687 v 1.5 h -1.79687 v 3.20313 z m 0,-4.70313 v -6.01562 l -4.1875,6.01562 z" />
  <path
     style="fill:#000000;fill-rule:nonzero"
     inkscape:connector-curvature="0"
     id="path57"
     d="m 18.964934,77.58669 5.125,-13.35938 h 1.90625 l 5.46875,13.35938 h -2.01562 l -1.54688,-4.04688 h -5.59375 l -1.46875,4.04688 z m 3.85938,-5.48438 h 4.53125 l -1.40625,-3.70312 q -0.625,-1.6875 -0.9375,-2.76563 -0.26563,1.28125 -0.71875,2.54688 z m 10.08419,5.48438 V 64.22731 h 9.65624 v 1.57813 h -7.87499 v 4.09375 h 7.37499 v 1.5625 h -7.37499 v 4.54687 h 8.18749 v 1.57813 z m 15.81857,0 V 65.80544 h -4.40625 v -1.57813 h 10.57812 v 1.57813 h -4.40625 v 11.78125 z m 13.0858,-7.8125 v -1.85938 h 1.85937 v 1.85938 z m 0,7.8125 v -1.875 h 1.85937 v 1.875 z m 10.41348,0 V 64.22731 h 1.76563 v 13.35938 z m 4.29268,-4.29688 1.65625,-0.14062 q 0.125,1 0.54687,1.64062 0.4375,0.64063 1.34375,1.04688 0.92188,0.39062 2.0625,0.39062 1,0 1.78125,-0.29687 0.78125,-0.29688 1.15625,-0.8125 0.375,-0.53125 0.375,-1.15625 0,-0.625 -0.375,-1.09375 -0.35937,-0.46875 -1.1875,-0.79688 -0.54687,-0.20312 -2.39062,-0.64062 -1.82813,-0.45313 -2.5625,-0.84375 -0.96875,-0.5 -1.4375,-1.23438 -0.46875,-0.75 -0.46875,-1.67187 0,-1 0.57812,-1.875 0.57813,-0.89063 1.67188,-1.34375 1.10937,-0.45313 2.45312,-0.45313 1.48438,0 2.60938,0.48438 1.14062,0.46875 1.75,1.40625 0.60937,0.92187 0.65625,2.09375 l -1.6875,0.125 q -0.14063,-1.26563 -0.9375,-1.90625 -0.78125,-0.65625 -2.3125,-0.65625 -1.60938,0 -2.34375,0.59375 -0.73438,0.59375 -0.73438,1.42187 0,0.71875 0.53125,1.17188 0.5,0.46875 2.65625,0.96875 2.15625,0.48437 2.95313,0.84375 1.17187,0.53125 1.71875,1.35937 0.5625,0.82813 0.5625,1.90625 0,1.0625 -0.60938,2.01563 -0.60937,0.9375 -1.75,1.46875 -1.14062,0.51562 -2.57812,0.51562 -1.8125,0 -3.04688,-0.53125 -1.21875,-0.53125 -1.92187,-1.59375 -0.6875,-1.0625 -0.71875,-2.40625 z m 12.44357,0 1.65625,-0.14062 q 0.125,1 0.54688,1.64062 0.4375,0.64063 1.34375,1.04688 0.92187,0.39062 2.0625,0.39062 1,0 1.78125,-0.29687 0.78125,-0.29688 1.15625,-0.8125 0.375,-0.53125 0.375,-1.15625 0,-0.625 -0.375,-1.09375 -0.35938,-0.46875 -1.1875,-0.79688 -0.54688,-0.20312 -2.39063,-0.64062 -1.82812,-0.45313 -2.5625,-0.84375 -0.96875,-0.5 -1.4375,-1.23438 -0.46875,-0.75 -0.46875,-1.67187 0,-1 0.57813,-1.875 0.57812,-0.89063 1.67187,-1.34375 1.10938,-0.45313 2.45313,-0.45313 1.48437,0 2.60937,0.48438 1.14063,0.46875 1.75,1.40625 0.60938,0.92187 0.65625,2.09375 l -1.6875,0.125 q -0.14062,-1.26563 -0.9375,-1.90625 -0.78125,-0.65625 -2.3125,-0.65625 -1.60937,0 -2.34375,0.59375 -0.73437,0.59375 -0.73437,1.42187 0,0.71875 0.53125,1.17188 0.5,0.46875 2.65625,0.96875 2.15625,0.48437 2.95312,0.84375 1.17188,0.53125 1.71875,1.35937 0.5625,0.82813 0.5625,1.90625 0,1.0625 -0.60937,2.01563 -0.60938,0.9375 -1.75,1.46875 -1.14063,0.51562 -2.57813,0.51562 -1.8125,0 -3.04687,-0.53125 -1.21875,-0.53125 -1.92188,-1.59375 -0.6875,-1.0625 -0.71875,-2.40625 z m 21.802946,-9.0625 h 1.76563 v 7.71875 q 0,2.01563 -0.45313,3.20313 -0.45312,1.1875 -1.64062,1.9375 -1.1875,0.73437 -3.125,0.73437 -1.875,0 -3.07813,-0.64062 -1.1875,-0.65625 -1.70312,-1.875 -0.5,-1.23438 -0.5,-3.35938 v -7.71875 h 1.76562 v 7.71875 q 0,1.73438 0.3125,2.5625 0.32813,0.8125 1.10938,1.26563 0.79687,0.45312 1.9375,0.45312 1.95312,0 2.78125,-0.89062 0.82812,-0.89063 0.82812,-3.39063 z m 4.73857,13.35938 V 64.22731 h 9.65625 v 1.57813 h -7.875 v 4.09375 h 7.375 v 1.5625 h -7.375 v 4.54687 h 8.1875 v 1.57813 z m 12.44357,0 V 64.22731 h 5.92188 q 1.78125,0 2.70312,0.35938 0.9375,0.35937 1.48438,1.28125 0.5625,0.90625 0.5625,2.01562 0,1.40625 -0.92188,2.39063 -0.92187,0.96875 -2.84375,1.23437 0.70313,0.34375 1.07813,0.67188 0.76562,0.70312 1.45312,1.76562 l 2.32813,3.64063 h -2.21875 l -1.76563,-2.78125 q -0.78125,-1.20313 -1.28125,-1.82813 -0.5,-0.64062 -0.90625,-0.89062 -0.39062,-0.26563 -0.79687,-0.35938 -0.29688,-0.0781 -0.98438,-0.0781 h -2.04687 v 5.9375 z m 1.76563,-7.45313 h 3.79687 q 1.21875,0 1.89063,-0.25 0.6875,-0.26562 1.04687,-0.8125 0.35938,-0.54687 0.35938,-1.1875 0,-0.95312 -0.6875,-1.5625 -0.6875,-0.60937 -2.1875,-0.60937 h -4.21875 z m 10.23859,7.6875 3.875,-13.8125 h 1.3125 l -3.85938,13.8125 z m 10.02703,-0.23437 V 65.80544 h -4.40625 v -1.57813 h 10.57813 v 1.57813 h -4.40625 v 11.78125 z m 5.13556,0 5.125,-13.35938 h 1.90625 l 5.46875,13.35938 h -2.01562 L 164.052,73.53981 h -5.59375 l -1.46875,4.04688 z m 3.85938,-5.48438 h 4.53125 l -1.40625,-3.70312 q -0.625,-1.6875 -0.9375,-2.76563 -0.26563,1.28125 -0.71875,2.54688 z m 10.0842,5.48438 V 64.22731 h 5.92187 q 1.78125,0 2.70313,0.35938 0.9375,0.35937 1.48437,1.28125 0.5625,0.90625 0.5625,2.01562 0,1.40625 -0.92187,2.39063 -0.92188,0.96875 -2.84375,1.23437 0.70312,0.34375 1.07812,0.67188 0.76563,0.70312 1.45313,1.76562 l 2.32812,3.64063 h -2.21875 l -1.76562,-2.78125 q -0.78125,-1.20313 -1.28125,-1.82813 -0.5,-0.64062 -0.90625,-0.89062 -0.39063,-0.26563 -0.79688,-0.35938 -0.29687,-0.0781 -0.98437,-0.0781 h -2.04688 v 5.9375 z m 1.76562,-7.45313 h 3.79688 q 1.21875,0 1.89062,-0.25 0.6875,-0.26562 1.04688,-0.8125 0.35937,-0.54687 0.35937,-1.1875 0,-0.95312 -0.6875,-1.5625 -0.6875,-0.60937 -2.1875,-0.60937 h -4.21875 z m 17.92609,2.21875 v -1.57812 h 5.65625 v 4.95312 q -1.29688,1.04688 -2.6875,1.57813 -1.375,0.51562 -2.84375,0.51562 -1.96875,0 -3.57813,-0.84375 -1.60937,-0.84375 -2.42187,-2.4375 -0.8125,-1.59375 -0.8125,-3.5625 0,-1.95312 0.8125,-3.64062 0.8125,-1.6875 2.34375,-2.5 1.53125,-0.82813 3.51562,-0.82813 1.45313,0 2.625,0.46875 1.17188,0.46875 1.82813,1.3125 0.67187,0.82813 1.01562,2.17188 l -1.59375,0.4375 q -0.29687,-1.01563 -0.75,-1.59375 -0.4375,-0.59375 -1.26562,-0.9375 -0.82813,-0.34375 -1.84375,-0.34375 -1.20313,0 -2.09375,0.375 -0.89063,0.35937 -1.4375,0.96875 -0.53125,0.59375 -0.82813,1.3125 -0.51562,1.23437 -0.51562,2.6875 0,1.78125 0.60937,2.98437 0.625,1.20313 1.79688,1.79688 1.17187,0.57812 2.5,0.57812 1.14062,0 2.23437,-0.4375 1.09375,-0.45312 1.65625,-0.95312 v -2.48438 z m 8.29266,5.23438 V 64.22731 h 9.65625 v 1.57813 h -7.875 v 4.09375 h 7.375 v 1.5625 h -7.375 v 4.54687 h 8.1875 v 1.57813 z m 15.81858,0 V 65.80544 h -4.40625 v -1.57813 h 10.57812 v 1.57813 h -4.40625 v 11.78125 z" />
  <path
     style="fill:#000000;fill-rule:nonzero"
     inkscape:connector-curvature="0"
     id="path59"
     d="M 46.513694,99.58667 V 86.22733 h 4.60937 q 1.54688,0 2.375,0.20312 1.14063,0.25 1.95313,0.95313 1.0625,0.89062 1.57812,2.28121 0.53125,1.39063 0.53125,3.17188 0,1.51562 -0.35937,2.70312 -0.35938,1.17188 -0.92188,1.9375 -0.54687,0.76563 -1.20312,1.21875 -0.65625,0.4375 -1.59375,0.67188 -0.9375,0.21875 -2.14063,0.21875 z m 1.76562,-1.57813 h 2.85938 q 1.3125,0 2.0625,-0.23437 0.75,-0.25 1.20312,-0.70313 0.625,-0.625 0.96875,-1.6875 0.35938,-1.0625 0.35938,-2.57812 0,-2.09375 -0.6875,-3.21875 -0.6875,-1.12497 -1.67188,-1.49997 -0.70312,-0.28125 -2.28125,-0.28125 h -2.8125 z m 12.0042,1.57813 V 86.22733 h 1.76563 v 13.35934 z m 14.41768,-4.6875 1.76562,0.45312 q -0.5625,2.17188 -2,3.32813 -1.4375,1.14062 -3.53125,1.14062 -2.15625,0 -3.51562,-0.875 -1.34375,-0.89062 -2.0625,-2.54687 -0.70313,-1.67188 -0.70313,-3.59375 0,-2.07813 0.79688,-3.625 0.79687,-1.56247 2.26562,-2.35934 1.48438,-0.8125 3.25,-0.8125 2,0 3.35938,1.01562 1.375,1.01563 1.90625,2.87497 l -1.73438,0.40625 q -0.46875,-1.45313 -1.35937,-2.10934 -0.875,-0.67188 -2.20313,-0.67188 -1.54687,0 -2.57812,0.73438 -1.03125,0.73434 -1.45313,1.98434 -0.42187,1.23437 -0.42187,2.5625 0,1.70312 0.5,2.96875 0.5,1.26562 1.54687,1.90625 1.04688,0.625 2.26563,0.625 1.48437,0 2.51562,-0.85938 1.03125,-0.85937 1.39063,-2.54687 z m 3.41045,-1.8125 q 0,-3.32813 1.78125,-5.20309 1.78125,-1.89063 4.60937,-1.89063 1.84375,0 3.32813,0.89063 1.48437,0.875 2.26562,2.46871 0.78125,1.57813 0.78125,3.57813 0,2.03125 -0.82812,3.64062 -0.8125,1.59375 -2.3125,2.42188 -1.5,0.82812 -3.25,0.82812 -1.875,0 -3.35938,-0.90625 -1.48437,-0.92187 -2.25,-2.5 -0.76562,-1.57812 -0.76562,-3.32812 z m 1.8125,0.0156 q 0,2.42188 1.29687,3.8125 1.29688,1.39063 3.26563,1.39063 2,0 3.28125,-1.40625 1.28125,-1.40625 1.28125,-3.98438 0,-1.625 -0.54688,-2.84375 -0.54687,-1.21875 -1.60937,-1.87496 -1.0625,-0.67188 -2.375,-0.67188 -1.89063,0 -3.25,1.29684 -1.34375,1.28125 -1.34375,4.28125 z m 13.1833,6.48438 V 86.22731 h 2.65625 l 3.15625,9.45309 q 0.4375,1.32812 0.64063,1.98437 0.23437,-0.73437 0.703116,-2.14062 l 3.20313,-9.29684 h 2.375 v 13.35934 h -1.70313 V 88.41481 l -3.875,11.17184 h -1.593746 l -3.85937,-11.37497 v 11.37497 z m 20.770976,0 V 86.22733 h 5.04688 q 1.32812,0 2.03125,0.125 0.96875,0.17187 1.64062,0.64062 0.67188,0.45313 1.07813,1.28125 0.40625,0.82809 0.40625,1.82809 0,1.70313 -1.09375,2.89063 -1.07813,1.17187 -3.92188,1.17187 h -3.42187 v 5.42188 z m 1.76563,-7 h 3.45312 q 1.71875,0 2.4375,-0.64063 0.71875,-0.64062 0.71875,-1.79687 0,-0.84375 -0.42187,-1.4375 -0.42188,-0.59372 -1.125,-0.78122 -0.4375,-0.125 -1.64063,-0.125 h -3.42187 z m 9.86544,2.15625 q 0,-2.6875 1.48438,-3.96875 1.25,-1.07813 3.04687,-1.07813 2,0 3.26563,1.3125 1.26562,1.29688 1.26562,3.60938 0,1.85937 -0.5625,2.9375 -0.5625,1.0625 -1.64062,1.65625 -1.0625,0.59375 -2.32813,0.59375 -2.03125,0 -3.28125,-1.29688 -1.25,-1.3125 -1.25,-3.76562 z m 1.6875,0 q 0,1.85937 0.79688,2.79687 0.8125,0.92188 2.04687,0.92188 1.21875,0 2.03125,-0.92188 0.8125,-0.9375 0.8125,-2.84375 0,-1.79687 -0.8125,-2.71875 -0.8125,-0.92187 -2.03125,-0.92187 -1.23437,0 -2.04687,0.92187 -0.79688,0.90625 -0.79688,2.76563 z m 9.28197,4.84375 v -9.67188 h 1.46875 v 1.46875 q 0.5625,-1.03125 1.03125,-1.35937 0.48438,-0.32813 1.0625,-0.32813 0.82813,0 1.6875,0.53125 l -0.5625,1.51563 q -0.60937,-0.35938 -1.20312,-0.35938 -0.54688,0 -0.96875,0.32813 -0.42188,0.32812 -0.60938,0.89062 -0.28125,0.875 -0.28125,1.92188 v 5.0625 z m 9.80643,-1.46875 0.23437,1.45312 q -0.6875,0.14063 -1.23437,0.14063 -0.89063,0 -1.39063,-0.28125 -0.48437,-0.28125 -0.6875,-0.73438 -0.20312,-0.46875 -0.20312,-1.9375 V 91.1804 h -1.20313 v -1.26563 h 1.20313 v -2.39059 l 1.625,-0.98437 v 3.37496 h 1.65625 v 1.26563 h -1.65625 v 5.67187 q 0,0.6875 0.0781,0.89063 0.0937,0.20312 0.28125,0.32812 0.20313,0.10938 0.57813,0.10938 0.26562,0 0.71875,-0.0625 z m 7.2416,-6.34375 v -1.85938 h 1.85938 v 1.85938 z m 0,7.8125 v -1.875 h 1.85938 v 1.875 z m 15.63222,0 h -1.64062 V 89.13352 q -0.59375,0.5625 -1.5625,1.14063 -0.95313,0.5625 -1.71875,0.84375 v -1.59375 q 1.375,-0.64063 2.40625,-1.56247 1.03125,-0.92187 1.45312,-1.78125 h 1.0625 z m 4.20386,-6.59375 q 0,-2.35938 0.48437,-3.79688 0.48438,-1.45309 1.4375,-2.23434 0.96875,-0.78125 2.42188,-0.78125 1.07812,0 1.89062,0.4375 0.8125,0.42188 1.32813,1.25 0.53125,0.81247 0.82812,1.98434 0.3125,1.15625 0.3125,3.14063 0,2.35937 -0.48437,3.8125 -0.48438,1.4375 -1.45313,2.23437 -0.95312,0.78125 -2.42187,0.78125 -1.92188,0 -3.03125,-1.39062 -1.3125,-1.67188 -1.3125,-5.4375 z m 1.67187,0 q 0,3.29687 0.76563,4.39062 0.78125,1.07813 1.90625,1.07813 1.14062,0 1.90625,-1.09375 0.76562,-1.09375 0.76562,-4.375 0,-3.29688 -0.76562,-4.375 -0.76563,-1.07809 -1.92188,-1.07809 -1.125,0 -1.79687,0.95312 -0.85938,1.21872 -0.85938,4.49997 z m 13.95383,6.59375 v -3.20313 h -5.79687 v -1.5 l 6.09375,-8.65621 h 1.34375 v 8.65621 h 1.79687 v 1.5 h -1.79687 v 3.20313 z m 0,-4.70313 V 88.8679 l -4.1875,6.01562 z" />
  <path
     style="fill:#cfe2f3;fill-rule:evenodd"
     inkscape:connector-curvature="0"
     id="path61"
     d="m 520.03934,22.19727 v 0 C 520.03934,10.49033 529.5297,1 541.23667,1 h 194.0149 c 5.62182,0 11.01349,2.23328 14.98871,6.20853 3.97528,3.97528 6.20855,9.36688 6.20855,14.98874 v 84.78653 c 0,11.70697 -9.49035,21.19733 -21.19726,21.19733 h -194.0149 c -11.70697,0 -21.19733,-9.49036 -21.19733,-21.19733 z" />
  <path
     style="fill-rule:evenodd;stroke:#000000;stroke-width:2;stroke-linecap:butt;stroke-linejoin:round"
     inkscape:connector-curvature="0"
     id="path63"
     d="m 520.03934,22.19727 v 0 C 520.03934,10.49033 529.5297,1 541.23667,1 h 194.0149 c 5.62182,0 11.01349,2.23328 14.98871,6.20853 3.97528,3.97528 6.20855,9.36688 6.20855,14.98874 v 84.78653 c 0,11.70697 -9.49035,21.19733 -21.19726,21.19733 h -194.0149 c -11.70697,0 -21.19733,-9.49036 -21.19733,-21.19733 z" />
  <path
     style="fill:#000000;fill-rule:nonzero"
     inkscape:connector-curvature="0"
     id="path65"
     d="M 563.9051,49.51057 V 36.15119 h 1.76562 v 13.35938 z m 4.88647,0 V 36.15119 h 5.04688 q 1.32812,0 2.03125,0.125 0.96875,0.17188 1.64062,0.64063 0.67188,0.45312 1.07813,1.28125 0.40625,0.82812 0.40625,1.82812 0,1.70313 -1.09375,2.89063 -1.07813,1.17187 -3.92188,1.17187 h -3.42187 v 5.42188 z m 1.76563,-7 h 3.45312 q 1.71875,0 2.4375,-0.64063 0.71875,-0.64062 0.71875,-1.79687 0,-0.84375 -0.42187,-1.4375 -0.42188,-0.59375 -1.125,-0.78125 -0.4375,-0.125 -1.64063,-0.125 h -3.42187 z m 15.77399,-0.8125 v -1.85938 h 1.85937 v 1.85938 z m 0,7.8125 v -1.875 h 1.85937 v 1.875 z m 15.63226,0 h -1.64063 V 39.05744 q -0.59375,0.5625 -1.5625,1.14063 -0.95312,0.5625 -1.71875,0.84375 v -1.59375 q 1.375,-0.64063 2.40625,-1.5625 1.03125,-0.92188 1.45313,-1.78125 h 1.0625 z m 4.43817,-3.09375 1.57813,-0.14063 q 0.20312,1.10938 0.76562,1.60938 0.5625,0.5 1.45313,0.5 0.75,0 1.3125,-0.34375 0.57812,-0.34375 0.9375,-0.92188 0.375,-0.57812 0.60937,-1.5625 0.25,-0.98437 0.25,-2 0,-0.10937 0,-0.32812 -0.5,0.78125 -1.35937,1.26562 -0.84375,0.48438 -1.82813,0.48438 -1.67187,0 -2.8125,-1.20313 -1.14062,-1.20312 -1.14062,-3.17187 0,-2.03125 1.1875,-3.26563 1.20312,-1.23437 3,-1.23437 1.3125,0 2.39062,0.70312 1.07813,0.70313 1.64063,2 0.5625,1.29688 0.5625,3.75 0,2.5625 -0.5625,4.07813 -0.5625,1.51562 -1.65625,2.3125 -1.09375,0.79687 -2.57813,0.79687 -1.5625,0 -2.5625,-0.875 -0.98437,-0.875 -1.1875,-2.45312 z m 6.71875,-5.89063 q 0,-1.40625 -0.75,-2.23437 -0.75,-0.82813 -1.8125,-0.82813 -1.09375,0 -1.90625,0.89063 -0.8125,0.89062 -0.8125,2.3125 0,1.28125 0.76563,2.07812 0.78125,0.79688 1.90625,0.79688 1.14062,0 1.875,-0.79688 0.73437,-0.79687 0.73437,-2.21875 z m 12.03198,7.40625 v 1.57813 h -8.82812 q -0.0156,-0.59375 0.1875,-1.14063 0.34375,-0.90625 1.07812,-1.78125 0.75,-0.875 2.15625,-2.01562 2.17188,-1.78125 2.9375,-2.82813 0.76563,-1.04687 0.76563,-1.96875 0,-0.98437 -0.70313,-1.64062 -0.6875,-0.67188 -1.8125,-0.67188 -1.1875,0 -1.90625,0.71875 -0.70312,0.70313 -0.70312,1.95313 l -1.6875,-0.17188 q 0.17187,-1.89062 1.29687,-2.875 1.14063,-0.98437 3.03125,-0.98437 1.92188,0 3.04688,1.0625 1.125,1.0625 1.125,2.64062 0,0.79688 -0.32813,1.57813 -0.32812,0.78125 -1.09375,1.64062 -0.75,0.84375 -2.53125,2.34375 -1.46875,1.23438 -1.89062,1.6875 -0.42188,0.4375 -0.6875,0.875 z m 2.67261,1.57813 v -1.875 h 1.875 v 1.875 z m 10.44891,0 h -1.64062 V 39.05744 q -0.59375,0.5625 -1.5625,1.14063 -0.95313,0.5625 -1.71875,0.84375 v -1.59375 q 1.375,-0.64063 2.40625,-1.5625 1.03125,-0.92188 1.45312,-1.78125 h 1.0625 z m 12.70386,-10.07813 -1.625,0.125 q -0.21875,-0.96875 -0.625,-1.40625 -0.65625,-0.70312 -1.64062,-0.70312 -0.78125,0 -1.375,0.4375 -0.76563,0.5625 -1.21875,1.65625 -0.45313,1.07812 -0.46875,3.07812 0.59375,-0.89062 1.45312,-1.32812 0.85938,-0.4375 1.79688,-0.4375 1.64062,0 2.78125,1.20312 1.15625,1.20313 1.15625,3.10938 0,1.26562 -0.54688,2.34375 -0.53125,1.07812 -1.48437,1.65625 -0.9375,0.57812 -2.14063,0.57812 -2.0625,0 -3.35937,-1.5 -1.28125,-1.51562 -1.28125,-4.98437 0,-3.875 1.42187,-5.625 1.25,-1.53125 3.375,-1.53125 1.5625,0 2.5625,0.89062 1.01563,0.875 1.21875,2.4375 z m -6.6875,5.75 q 0,0.84375 0.35938,1.625 0.35937,0.76563 1,1.17188 0.64062,0.40625 1.35937,0.40625 1.03125,0 1.78125,-0.82813 0.75,-0.84375 0.75,-2.28125 0,-1.39062 -0.73437,-2.1875 -0.73438,-0.79687 -1.85938,-0.79687 -1.10937,0 -1.89062,0.79687 -0.76563,0.79688 -0.76563,2.09375 z m 11.07886,-2.90625 q -1.01563,-0.375 -1.51563,-1.0625 -0.48437,-0.70312 -0.48437,-1.67187 0,-1.45313 1.04687,-2.4375 1.04688,-1 2.78125,-1 1.75,0 2.8125,1.01562 1.07813,1.01563 1.07813,2.46875 0,0.9375 -0.5,1.625 -0.48438,0.6875 -1.46875,1.0625 1.21875,0.39063 1.85937,1.28125 0.65625,0.89063 0.65625,2.14063 0,1.70312 -1.21875,2.875 -1.21875,1.17187 -3.1875,1.17187 -1.98437,0 -3.20312,-1.17187 -1.20313,-1.17188 -1.20313,-2.92188 0,-1.3125 0.65625,-2.1875 0.67188,-0.875 1.89063,-1.1875 z m -0.32813,-2.78125 q 0,0.9375 0.60938,1.54688 0.60937,0.59375 1.59375,0.59375 0.9375,0 1.54687,-0.59375 0.60938,-0.59375 0.60938,-1.45313 0,-0.90625 -0.625,-1.51562 -0.625,-0.625 -1.5625,-0.625 -0.9375,0 -1.5625,0.60937 -0.60938,0.59375 -0.60938,1.4375 z m -0.53125,6.15625 q 0,0.70313 0.32813,1.35938 0.34375,0.65625 1,1.01562 0.65625,0.35938 1.40625,0.35938 1.17187,0 1.9375,-0.75 0.76562,-0.75 0.76562,-1.92188 0,-1.1875 -0.79687,-1.95312 -0.78125,-0.78125 -1.95313,-0.78125 -1.15625,0 -1.92187,0.76562 -0.76563,0.76563 -0.76563,1.90625 z m 9.62574,3.85938 v -1.875 h 1.875 v 1.875 z m 4.27703,-3.53125 1.64063,-0.21875 q 0.28125,1.40625 0.95312,2.01562 0.6875,0.60938 1.65625,0.60938 1.15625,0 1.95313,-0.79688 0.79687,-0.79687 0.79687,-1.98437 0,-1.125 -0.73437,-1.85938 -0.73438,-0.73437 -1.875,-0.73437 -0.46875,0 -1.15625,0.17187 l 0.1875,-1.4375 q 0.15625,0.0156 0.26562,0.0156 1.04688,0 1.875,-0.54688 0.84375,-0.54687 0.84375,-1.67187 0,-0.90625 -0.60937,-1.5 -0.60938,-0.59375 -1.57813,-0.59375 -0.95312,0 -1.59375,0.60937 -0.64062,0.59375 -0.8125,1.79688 l -1.64062,-0.29688 q 0.29687,-1.64062 1.35937,-2.54687 1.0625,-0.90625 2.65625,-0.90625 1.09375,0 2,0.46875 0.92188,0.46875 1.40625,1.28125 0.5,0.8125 0.5,1.71875 0,0.85937 -0.46875,1.57812 -0.46875,0.70313 -1.375,1.125 1.1875,0.28125 1.84375,1.14063 0.65625,0.85937 0.65625,2.15625 0,1.73437 -1.28125,2.95312 -1.26562,1.21875 -3.21875,1.21875 -1.76562,0 -2.92187,-1.04687 -1.15625,-1.04688 -1.32813,-2.71875 z m 15.62574,3.53125 v -3.20313 h -5.79688 v -1.5 l 6.09375,-8.65625 h 1.34375 v 8.65625 h 1.79688 v 1.5 h -1.79688 v 3.20313 z m 0,-4.70313 v -6.01562 l -4.1875,6.01562 z m 6.03192,4.70313 v -1.875 h 1.875 v 1.875 z m 10.44897,0 h -1.64062 V 39.05744 q -0.59375,0.5625 -1.5625,1.14063 -0.95313,0.5625 -1.71875,0.84375 v -1.59375 q 1.375,-0.64063 2.40625,-1.5625 1.03125,-0.92188 1.45312,-1.78125 h 1.0625 z m 12.81317,-1.57813 v 1.57813 h -8.82812 q -0.0156,-0.59375 0.1875,-1.14063 0.34375,-0.90625 1.07812,-1.78125 0.75,-0.875 2.15625,-2.01562 2.17188,-1.78125 2.9375,-2.82813 0.76563,-1.04687 0.76563,-1.96875 0,-0.98437 -0.70313,-1.64062 -0.6875,-0.67188 -1.8125,-0.67188 -1.1875,0 -1.90625,0.71875 -0.70312,0.70313 -0.70312,1.95313 l -1.6875,-0.17188 q 0.17187,-1.89062 1.29687,-2.875 1.14063,-0.98437 3.03125,-0.98437 1.92188,0 3.04688,1.0625 1.125,1.0625 1.125,2.64062 0,0.79688 -0.32813,1.57813 -0.32812,0.78125 -1.09375,1.64062 -0.75,0.84375 -2.53125,2.34375 -1.46875,1.23438 -1.89062,1.6875 -0.42188,0.4375 -0.6875,0.875 z" />
  <path
     style="fill:#000000;fill-rule:nonzero"
     inkscape:connector-curvature="0"
     id="path67"
     d="m 572.55625,71.51057 5.125,-13.35938 h 1.90625 l 5.46875,13.35938 h -2.01562 l -1.54688,-4.04688 H 575.9 l -1.46875,4.04688 z m 3.85938,-5.48438 h 4.53125 l -1.40625,-3.70312 q -0.625,-1.6875 -0.9375,-2.76563 -0.26563,1.28125 -0.71875,2.54688 z m 10.08416,5.48438 V 58.15119 h 9.65625 v 1.57813 h -7.875 v 4.09375 h 7.375 v 1.5625 h -7.375 v 4.54687 h 8.1875 v 1.57813 z m 15.81861,0 V 59.72932 h -4.40625 v -1.57813 h 10.57812 v 1.57813 h -4.40625 v 11.78125 z m 13.08581,-7.8125 v -1.85938 h 1.85938 v 1.85938 z m 0,7.8125 v -1.875 h 1.85938 v 1.875 z m 9.52283,-4.29688 1.65625,-0.14062 q 0.125,1 0.54687,1.64062 0.4375,0.64063 1.34375,1.04688 0.92188,0.39062 2.0625,0.39062 1,0 1.78125,-0.29687 0.78125,-0.29688 1.15625,-0.8125 0.375,-0.53125 0.375,-1.15625 0,-0.625 -0.375,-1.09375 -0.35937,-0.46875 -1.1875,-0.79688 -0.54687,-0.20312 -2.39062,-0.64062 -1.82813,-0.45313 -2.5625,-0.84375 -0.96875,-0.5 -1.4375,-1.23438 -0.46875,-0.75 -0.46875,-1.67187 0,-1 0.57812,-1.875 0.57813,-0.89063 1.67188,-1.34375 1.10937,-0.45313 2.45312,-0.45313 1.48438,0 2.60938,0.48438 1.14062,0.46875 1.75,1.40625 0.60937,0.92187 0.65625,2.09375 l -1.6875,0.125 q -0.14063,-1.26563 -0.9375,-1.90625 -0.78125,-0.65625 -2.3125,-0.65625 -1.60938,0 -2.34375,0.59375 -0.73438,0.59375 -0.73438,1.42187 0,0.71875 0.53125,1.17188 0.5,0.46875 2.65625,0.96875 2.15625,0.48437 2.95313,0.84375 1.17187,0.53125 1.71875,1.35937 0.5625,0.82813 0.5625,1.90625 0,1.0625 -0.60938,2.01563 -0.60937,0.9375 -1.75,1.46875 -1.14062,0.51562 -2.57812,0.51562 -1.8125,0 -3.04688,-0.53125 -1.21875,-0.53125 -1.92187,-1.59375 -0.6875,-1.0625 -0.71875,-2.40625 z m 12.5061,-2.20312 q 0,-3.32813 1.78125,-5.20313 1.78125,-1.89062 4.60938,-1.89062 1.84375,0 3.32812,0.89062 1.48438,0.875 2.26563,2.46875 0.78125,1.57813 0.78125,3.57813 0,2.03125 -0.82813,3.64062 -0.8125,1.59375 -2.3125,2.42188 -1.5,0.82812 -3.25,0.82812 -1.875,0 -3.35937,-0.90625 -1.48438,-0.92187 -2.25,-2.5 -0.76563,-1.57812 -0.76563,-3.32812 z m 1.8125,0.0156 q 0,2.42188 1.29688,3.8125 1.29687,1.39063 3.26562,1.39063 2,0 3.28125,-1.40625 1.28125,-1.40625 1.28125,-3.98438 0,-1.625 -0.54687,-2.84375 -0.54688,-1.21875 -1.60938,-1.875 -1.0625,-0.67187 -2.375,-0.67187 -1.89062,0 -3.25,1.29687 -1.34375,1.28125 -1.34375,4.28125 z m 21.99579,-6.875 h 1.76563 v 7.71875 q 0,2.01563 -0.45313,3.20313 -0.45312,1.1875 -1.64062,1.9375 -1.1875,0.73437 -3.125,0.73437 -1.875,0 -3.07813,-0.64062 -1.1875,-0.65625 -1.70312,-1.875 -0.5,-1.23438 -0.5,-3.35938 v -7.71875 h 1.76562 v 7.71875 q 0,1.73438 0.3125,2.5625 0.32813,0.8125 1.10938,1.26563 0.79687,0.45312 1.9375,0.45312 1.95312,0 2.78125,-0.89062 0.82812,-0.89063 0.82812,-3.39063 z m 4.73859,13.35938 V 58.15117 h 5.92187 q 1.78125,0 2.70313,0.35938 0.9375,0.35937 1.48437,1.28125 0.5625,0.90625 0.5625,2.01562 0,1.40625 -0.92187,2.39063 -0.92188,0.96875 -2.84375,1.23437 0.70312,0.34375 1.07812,0.67188 0.76563,0.70312 1.45313,1.76562 l 2.32812,3.64063 h -2.21875 l -1.76562,-2.78125 q -0.78125,-1.20313 -1.28125,-1.82813 -0.5,-0.64062 -0.90625,-0.89062 -0.39063,-0.26563 -0.79688,-0.35938 -0.29687,-0.0781 -0.98437,-0.0781 h -2.04688 v 5.9375 z m 1.76562,-7.45313 h 3.79688 q 1.21875,0 1.89062,-0.25 0.6875,-0.26562 1.04688,-0.8125 0.35937,-0.54687 0.35937,-1.1875 0,-0.95312 -0.6875,-1.5625 -0.6875,-0.60937 -2.1875,-0.60937 h -4.21875 z m 21.20728,2.76563 1.76562,0.45312 q -0.5625,2.17188 -2,3.32813 -1.4375,1.14062 -3.53125,1.14062 -2.15625,0 -3.51562,-0.875 -1.34375,-0.89062 -2.0625,-2.54687 -0.70313,-1.67188 -0.70313,-3.59375 0,-2.07813 0.79688,-3.625 0.79687,-1.5625 2.26562,-2.35938 1.48438,-0.8125 3.25,-0.8125 2,0 3.35938,1.01563 1.375,1.01562 1.90625,2.875 l -1.73438,0.40625 q -0.46875,-1.45313 -1.35937,-2.10938 -0.875,-0.67187 -2.20313,-0.67187 -1.54687,0 -2.57812,0.73437 -1.03125,0.73438 -1.45313,1.98438 -0.42187,1.23437 -0.42187,2.5625 0,1.70312 0.5,2.96875 0.5,1.26562 1.54687,1.90625 1.04688,0.625 2.26563,0.625 1.48437,0 2.51562,-0.85938 1.03125,-0.85937 1.39063,-2.54687 z m 3.97296,4.6875 V 58.15117 h 9.65625 v 1.57813 h -7.875 v 4.09375 h 7.375 v 1.5625 h -7.375 v 4.54687 h 8.1875 v 1.57813 z" />
  <path
     style="fill:#000000;fill-rule:nonzero"
     inkscape:connector-curvature="0"
     id="path69"
     d="M 565.5531,93.51057 V 80.15123 h 4.60937 q 1.54688,0 2.375,0.20312 1.14063,0.25 1.95313,0.95313 1.0625,0.89062 1.57812,2.28125 0.53125,1.39062 0.53125,3.17187 0,1.51563 -0.35937,2.70309 -0.35938,1.17188 -0.92188,1.9375 -0.54687,0.76563 -1.20312,1.21875 -0.65625,0.4375 -1.59375,0.67188 -0.9375,0.21875 -2.14063,0.21875 z m 1.76562,-1.57813 h 2.85938 q 1.3125,0 2.0625,-0.23437 0.75,-0.25 1.20312,-0.70313 0.625,-0.625 0.96875,-1.6875 0.35938,-1.06246 0.35938,-2.57809 0,-2.09375 -0.6875,-3.21875 -0.6875,-1.125 -1.67188,-1.5 -0.70312,-0.28125 -2.28125,-0.28125 h -2.8125 z m 12.00422,1.57813 V 80.15123 h 1.76562 v 13.35934 z m 14.41766,-4.6875 1.76562,0.45312 q -0.5625,2.17188 -2,3.32813 -1.4375,1.14062 -3.53125,1.14062 -2.15625,0 -3.51562,-0.875 -1.34375,-0.89062 -2.0625,-2.54687 -0.70313,-1.67188 -0.70313,-3.59372 0,-2.07812 0.79688,-3.625 0.79687,-1.5625 2.26562,-2.35937 1.48438,-0.8125 3.25,-0.8125 2,0 3.35938,1.01562 1.375,1.01563 1.90625,2.875 l -1.73438,0.40625 q -0.46875,-1.45312 -1.35937,-2.10937 -0.875,-0.67188 -2.20313,-0.67188 -1.54687,0 -2.57812,0.73438 -1.03125,0.73437 -1.45313,1.98437 -0.42187,1.23438 -0.42187,2.5625 0,1.70313 0.5,2.96872 0.5,1.26562 1.54687,1.90625 1.04688,0.625 2.26563,0.625 1.48437,0 2.51562,-0.85938 1.03125,-0.85937 1.39063,-2.54687 z m 3.41046,-1.81247 q 0,-3.32812 1.78125,-5.20312 1.78125,-1.89063 4.60938,-1.89063 1.84375,0 3.32812,0.89063 1.48438,0.875 2.26563,2.46875 0.78125,1.57812 0.78125,3.57812 0,2.03122 -0.82813,3.64059 -0.8125,1.59375 -2.3125,2.42188 -1.5,0.82812 -3.25,0.82812 -1.875,0 -3.35937,-0.90625 -1.48438,-0.92187 -2.25,-2.5 -0.76563,-1.57812 -0.76563,-3.32809 z m 1.8125,0.0156 q 0,2.42184 1.29688,3.81246 1.29687,1.39063 3.26562,1.39063 2,0 3.28125,-1.40625 1.28125,-1.40625 1.28125,-3.98434 0,-1.625 -0.54687,-2.84375 -0.54688,-1.21875 -1.60938,-1.875 -1.0625,-0.67188 -2.375,-0.67188 -1.89062,0 -3.25,1.29688 -1.34375,1.28125 -1.34375,4.28125 z m 13.18329,6.48434 V 80.1512 h 2.65625 l 3.15625,9.45309 q 0.4375,1.32812 0.64063,1.98437 0.23437,-0.73437 0.70312,-2.14062 l 3.20313,-9.29684 h 2.375 V 93.51057 H 623.1781 V 82.33873 l -3.875,11.17184 h -1.59375 L 613.84998,82.1356 v 11.37497 z m 20.771,0 V 80.1512 h 5.04687 q 1.32813,0 2.03125,0.125 0.96875,0.17187 1.64063,0.64062 0.67187,0.45313 1.07812,1.28125 0.40625,0.82813 0.40625,1.82813 0,1.70312 -1.09375,2.89062 -1.07812,1.17188 -3.92187,1.17188 h -3.42188 v 5.42184 z m 1.76562,-6.99997 h 3.45313 q 1.71875,0 2.4375,-0.64062 0.71875,-0.64063 0.71875,-1.79688 0,-0.84375 -0.42188,-1.4375 -0.42187,-0.59375 -1.125,-0.78125 -0.4375,-0.125 -1.64062,-0.125 h -3.42188 z m 9.86542,2.15622 q 0,-2.68747 1.48437,-3.96872 1.25,-1.07812 3.04688,-1.07812 2,0 3.26562,1.3125 1.26563,1.29687 1.26563,3.60937 0,1.85934 -0.5625,2.93747 -0.5625,1.0625 -1.64063,1.65625 -1.0625,0.59375 -2.32812,0.59375 -2.03125,0 -3.28125,-1.29688 -1.25,-1.3125 -1.25,-3.76562 z m 1.6875,0 q 0,1.85937 0.79687,2.79687 0.8125,0.92188 2.04688,0.92188 1.21875,0 2.03125,-0.92188 0.8125,-0.9375 0.8125,-2.84375 0,-1.79684 -0.8125,-2.71871 -0.8125,-0.92188 -2.03125,-0.92188 -1.23438,0 -2.04688,0.92188 -0.79687,0.90625 -0.79687,2.76559 z m 9.28198,4.84375 V 83.8387 h 1.46875 v 1.46875 q 0.5625,-1.03125 1.03125,-1.35938 0.48438,-0.32812 1.0625,-0.32812 0.82813,0 1.6875,0.53125 l -0.5625,1.51562 q -0.60937,-0.35937 -1.20312,-0.35937 -0.54688,0 -0.96875,0.32812 -0.42188,0.32813 -0.60938,0.89063 -0.28125,0.875 -0.28125,1.92187 v 5.06247 z m 9.8064,-1.46875 0.23437,1.45312 q -0.6875,0.14063 -1.23437,0.14063 -0.89063,0 -1.39063,-0.28125 -0.48437,-0.28125 -0.6875,-0.73438 -0.20312,-0.46875 -0.20312,-1.9375 v -5.57809 h -1.20313 V 83.8387 h 1.20313 v -2.39063 l 1.625,-0.98437 v 3.375 h 1.65625 v 1.26562 h -1.65625 v 5.67184 q 0,0.6875 0.0781,0.89063 0.0937,0.20312 0.28125,0.32812 0.20313,0.10938 0.57813,0.10938 0.26562,0 0.71875,-0.0625 z m 7.24164,-6.34372 V 83.8387 h 1.85937 v 1.85937 z m 0,7.81247 v -1.875 h 1.85937 v 1.875 z m 15.6322,0 h -1.64063 V 83.05745 q -0.59375,0.5625 -1.5625,1.14062 -0.95312,0.5625 -1.71875,0.84375 v -1.59375 q 1.375,-0.64062 2.40625,-1.5625 1.03125,-0.92187 1.45313,-1.78125 h 1.0625 z m 4.20385,-6.59372 q 0,-2.35937 0.48438,-3.79687 0.48437,-1.45313 1.4375,-2.23438 0.96875,-0.78125 2.42187,-0.78125 1.07813,0 1.89063,0.4375 0.8125,0.42188 1.32812,1.25 0.53125,0.8125 0.82813,1.98438 0.3125,1.15625 0.3125,3.14062 0,2.35934 -0.48438,3.81247 -0.48437,1.4375 -1.45312,2.23437 -0.95313,0.78125 -2.42188,0.78125 -1.92187,0 -3.03125,-1.39062 -1.3125,-1.67188 -1.3125,-5.43747 z m 1.67188,0 q 0,3.29684 0.76562,4.39059 0.78125,1.07813 1.90625,1.07813 1.14063,0 1.90625,-1.09375 0.76563,-1.09375 0.76563,-4.37497 0,-3.29687 -0.76563,-4.375 -0.76562,-1.07812 -1.92187,-1.07812 -1.125,0 -1.79688,0.95312 -0.85937,1.21875 -0.85937,4.5 z m 13.95386,6.59372 v -3.20313 h -5.79688 v -1.5 l 6.09375,-8.65621 h 1.34375 v 8.65621 h 1.79688 v 1.5 h -1.79688 v 3.20313 z m 0,-4.70313 v -6.01559 l -4.1875,6.01559 z" />
  <path
     style="fill:#f4cccc;fill-rule:evenodd"
     inkscape:connector-curvature="0"
     id="path71"
     d="M 290.78214,22.97264 H 468.59318 V 7.075 l 31.79529,31.79528 -31.79529,31.79526 V 54.7679 H 290.78214 Z" />
  <path
     style="fill-rule:evenodd;stroke:#000000;stroke-width:2;stroke-linecap:butt;stroke-linejoin:round"
     inkscape:connector-curvature="0"
     id="path73"
     d="M 290.78214,22.97264 H 468.59318 V 7.075 l 31.79529,31.79528 -31.79529,31.79526 V 54.7679 H 290.78214 Z" />
  <path
     style="fill:#000000;fill-rule:nonzero"
     inkscape:connector-curvature="0"
     id="path75"
     d="m 336.05042,41.10277 1.76563,0.45312 q -0.5625,2.17188 -2,3.32813 -1.4375,1.14062 -3.53125,1.14062 -2.15625,0 -3.51563,-0.875 -1.34375,-0.89062 -2.0625,-2.54687 -0.70312,-1.67188 -0.70312,-3.59375 0,-2.07813 0.79687,-3.625 0.79688,-1.5625 2.26563,-2.35938 1.48437,-0.8125 3.25,-0.8125 2,0 3.35937,1.01563 1.375,1.01562 1.90625,2.875 l -1.73437,0.40625 q -0.46875,-1.45313 -1.35938,-2.10938 -0.875,-0.67187 -2.20312,-0.67187 -1.54688,0 -2.57813,0.73437 -1.03125,0.73438 -1.45312,1.98438 -0.42188,1.23437 -0.42188,2.5625 0,1.70312 0.5,2.96875 0.5,1.26562 1.54688,1.90625 1.04687,0.625 2.26562,0.625 1.48438,0 2.51563,-0.85938 1.03125,-0.85937 1.39062,-2.54687 z m 3.09793,0.67187 v -1.64062 h 5.03125 v 1.64062 z m 13.30643,-1.21875 v -1.57812 h 5.65625 v 4.95312 q -1.29688,1.04688 -2.6875,1.57813 -1.375,0.51562 -2.84375,0.51562 -1.96875,0 -3.57813,-0.84375 -1.60937,-0.84375 -2.42187,-2.4375 -0.8125,-1.59375 -0.8125,-3.5625 0,-1.95312 0.8125,-3.64062 0.8125,-1.6875 2.34375,-2.5 1.53125,-0.82813 3.51562,-0.82813 1.45313,0 2.625,0.46875 1.17188,0.46875 1.82813,1.3125 0.67187,0.82813 1.01562,2.17188 l -1.59375,0.4375 q -0.29687,-1.01563 -0.75,-1.59375 -0.4375,-0.59375 -1.26562,-0.9375 -0.82813,-0.34375 -1.84375,-0.34375 -1.20313,0 -2.09375,0.375 -0.89063,0.35937 -1.4375,0.96875 -0.53125,0.59375 -0.82813,1.3125 -0.51562,1.23437 -0.51562,2.6875 0,1.78125 0.60937,2.98437 0.625,1.20313 1.79688,1.79688 1.17187,0.57812 2.5,0.57812 1.14062,0 2.23437,-0.4375 1.09375,-0.45312 1.65625,-0.95312 v -2.48438 z m 8.29269,5.23438 V 32.43089 h 9.65625 v 1.57813 h -7.875 v 4.09375 h 7.375 v 1.5625 h -7.375 v 4.54687 h 8.1875 v 1.57813 z m 15.81858,0 V 34.00902 h -4.40625 v -1.57813 h 10.57812 v 1.57813 h -4.40625 v 11.78125 z m 12.61703,0 v -9.67188 h 1.46875 v 1.46875 q 0.5625,-1.03125 1.03125,-1.35937 0.48437,-0.32813 1.0625,-0.32813 0.82812,0 1.6875,0.53125 l -0.5625,1.51563 q -0.60938,-0.35938 -1.20313,-0.35938 -0.54687,0 -0.96875,0.32813 -0.42187,0.32812 -0.60937,0.89062 -0.28125,0.875 -0.28125,1.92188 v 5.0625 z m 12.8533,-3.10938 1.6875,0.20313 q -0.40625,1.48437 -1.48437,2.3125 -1.07813,0.8125 -2.76563,0.8125 -2.125,0 -3.375,-1.29688 -1.23437,-1.3125 -1.23437,-3.67187 0,-2.45313 1.25,-3.79688 1.26562,-1.34375 3.26562,-1.34375 1.9375,0 3.15625,1.32813 1.23438,1.3125 1.23438,3.70312 0,0.15625 0,0.4375 h -7.21875 q 0.0937,1.59375 0.90625,2.45313 0.8125,0.84375 2.01562,0.84375 0.90625,0 1.54688,-0.46875 0.64062,-0.48438 1.01562,-1.51563 z m -5.39062,-2.65625 h 5.40625 q -0.10938,-1.21875 -0.625,-1.82812 -0.78125,-0.95313 -2.03125,-0.95313 -1.125,0 -1.90625,0.76563 -0.76563,0.75 -0.84375,2.01562 z m 15.2976,9.46875 v -4.73437 q -0.375,0.54687 -1.0625,0.90625 -0.6875,0.34375 -1.46875,0.34375 -1.71875,0 -2.96875,-1.375 -1.23437,-1.375 -1.23437,-3.76563 0,-1.46875 0.5,-2.625 0.51562,-1.15625 1.46875,-1.75 0.96875,-0.59375 2.10937,-0.59375 1.79688,0 2.82813,1.51563 v -1.29688 h 1.46875 v 13.375 z m -5.04687,-8.5625 q 0,1.85938 0.78125,2.79688 0.78125,0.9375 1.875,0.9375 1.04687,0 1.79687,-0.89063 0.76563,-0.89062 0.76563,-2.70312 0,-1.9375 -0.79688,-2.90625 -0.79687,-0.96875 -1.875,-0.96875 -1.0625,0 -1.8125,0.90625 -0.73437,0.90625 -0.73437,2.82812 z m 15.59445,4.85938 v -1.42188 q -1.125,1.64063 -3.0625,1.64063 -0.85937,0 -1.60937,-0.32813 -0.73438,-0.32812 -1.09375,-0.82812 -0.35938,-0.5 -0.5,-1.21875 -0.10938,-0.46875 -0.10938,-1.53125 v -5.98438 h 1.64063 v 5.35938 q 0,1.28125 0.10937,1.73437 0.15625,0.64063 0.65625,1.01563 0.5,0.375 1.23438,0.375 0.73437,0 1.375,-0.375 0.65625,-0.39063 0.92187,-1.03125 0.26563,-0.65625 0.26563,-1.89063 v -5.1875 h 1.64062 v 9.67188 z m 10.67261,-3.10938 1.6875,0.20313 q -0.40625,1.48437 -1.48438,2.3125 -1.07812,0.8125 -2.76562,0.8125 -2.125,0 -3.375,-1.29688 -1.23438,-1.3125 -1.23438,-3.67187 0,-2.45313 1.25,-3.79688 1.26563,-1.34375 3.26563,-1.34375 1.9375,0 3.15625,1.32813 1.23437,1.3125 1.23437,3.70312 0,0.15625 0,0.4375 h -7.21875 q 0.0937,1.59375 0.90625,2.45313 0.8125,0.84375 2.01563,0.84375 0.90625,0 1.54687,-0.46875 0.64063,-0.48438 1.01563,-1.51563 z m -5.39063,-2.65625 h 5.40625 q -0.10937,-1.21875 -0.625,-1.82812 -0.78125,-0.95313 -2.03125,-0.95313 -1.125,0 -1.90625,0.76563 -0.76562,0.75 -0.84375,2.01562 z m 8.48511,2.875 1.625,-0.25 q 0.125,0.96875 0.75,1.5 0.625,0.51563 1.75,0.51563 1.125,0 1.67187,-0.45313 0.54688,-0.46875 0.54688,-1.09375 0,-0.54687 -0.48438,-0.875 -0.32812,-0.21875 -1.67187,-0.54687 -1.8125,-0.46875 -2.51563,-0.79688 -0.6875,-0.32812 -1.04687,-0.90625 -0.35938,-0.59375 -0.35938,-1.3125 0,-0.64062 0.29688,-1.1875 0.29687,-0.5625 0.8125,-0.92187 0.375,-0.28125 1.03125,-0.46875 0.67187,-0.20313 1.42187,-0.20313 1.14063,0 2,0.32813 0.85938,0.32812 1.26563,0.89062 0.42187,0.5625 0.57812,1.5 l -1.60937,0.21875 q -0.10938,-0.75 -0.64063,-1.17187 -0.51562,-0.42188 -1.46875,-0.42188 -1.14062,0 -1.625,0.375 -0.46875,0.375 -0.46875,0.875 0,0.3125 0.1875,0.57813 0.20313,0.26562 0.64063,0.4375 0.23437,0.0937 1.4375,0.42187 1.75,0.45313 2.4375,0.75 0.6875,0.29688 1.07812,0.85938 0.39063,0.5625 0.39063,1.40625 0,0.82812 -0.48438,1.54687 -0.46875,0.71875 -1.375,1.125 -0.90625,0.39063 -2.04687,0.39063 -1.875,0 -2.875,-0.78125 -0.98438,-0.78125 -1.25,-2.32813 z m 13.5625,1.42188 0.23437,1.45312 q -0.6875,0.14063 -1.23437,0.14063 -0.89063,0 -1.39063,-0.28125 -0.48437,-0.28125 -0.6875,-0.73438 -0.20312,-0.46875 -0.20312,-1.9375 v -5.57812 h -1.20313 v -1.26563 h 1.20313 v -2.39062 l 1.625,-0.98438 v 3.375 h 1.65625 v 1.26563 h -1.65625 v 5.67187 q 0,0.6875 0.0781,0.89063 0.0937,0.20312 0.28125,0.32812 0.20313,0.10938 0.57813,0.10938 0.26562,0 0.71875,-0.0625 z" />
  <path
     style="fill:#f4cccc;fill-rule:evenodd"
     inkscape:connector-curvature="0"
     id="path77"
     d="m 254.72004,96.38467 31.79529,-31.79526 v 15.89765 h 177.811 v 31.79525 h -177.811 v 15.89765 z" />
  <path
     style="fill-rule:evenodd;stroke:#000000;stroke-width:2;stroke-linecap:butt;stroke-linejoin:round"
     inkscape:connector-curvature="0"
     id="path79"
     d="m 254.72004,96.38467 31.79529,-31.79526 v 15.89765 h 177.811 v 31.79525 h -177.811 v 15.89765 z" />
  <path
     style="fill:#000000;fill-rule:nonzero"
     inkscape:connector-curvature="0"
     id="path81"
     d="M 300.48352,103.30473 V 89.94536 h 4.60937 q 1.54688,0 2.375,0.20312 1.14063,0.25 1.95313,0.95313 1.0625,0.89062 1.57812,2.28125 0.53125,1.39062 0.53125,3.17187 0,1.51563 -0.35937,2.70313 -0.35938,1.17187 -0.92188,1.9375 -0.54687,0.76562 -1.20312,1.21875 -0.65625,0.4375 -1.59375,0.67187 -0.9375,0.21875 -2.14063,0.21875 z m 1.76562,-1.57812 h 2.85938 q 1.3125,0 2.0625,-0.23438 0.75,-0.25 1.20312,-0.70312 0.625,-0.625 0.96875,-1.6875 0.35938,-1.0625 0.35938,-2.57813 0,-2.09375 -0.6875,-3.21875 -0.6875,-1.125 -1.67188,-1.5 -0.70312,-0.28125 -2.28125,-0.28125 h -2.8125 z m 12.00422,1.57812 V 89.94536 h 1.76562 v 13.35937 z m 14.41766,-4.6875 1.76562,0.45313 q -0.5625,2.17187 -2,3.32812 -1.4375,1.14063 -3.53125,1.14063 -2.15625,0 -3.51562,-0.875 -1.34375,-0.89063 -2.0625,-2.54688 -0.70313,-1.67187 -0.70313,-3.59375 0,-2.07812 0.79688,-3.625 0.79687,-1.5625 2.26562,-2.35937 1.48438,-0.8125 3.25,-0.8125 2,0 3.35938,1.01562 1.375,1.01563 1.90625,2.875 l -1.73438,0.40625 q -0.46875,-1.45312 -1.35937,-2.10937 -0.875,-0.67188 -2.20313,-0.67188 -1.54687,0 -2.57812,0.73438 -1.03125,0.73437 -1.45313,1.98437 -0.42187,1.23438 -0.42187,2.5625 0,1.70313 0.5,2.96875 0.5,1.26563 1.54687,1.90625 1.04688,0.625 2.26563,0.625 1.48437,0 2.51562,-0.85937 1.03125,-0.85938 1.39063,-2.54688 z m 3.41046,-1.8125 q 0,-3.32812 1.78125,-5.20312 1.78125,-1.89063 4.60938,-1.89063 1.84375,0 3.32812,0.89063 1.48438,0.875 2.26563,2.46875 0.78125,1.57812 0.78125,3.57812 0,2.03125 -0.82813,3.64063 -0.8125,1.59375 -2.3125,2.42187 -1.5,0.82813 -3.25,0.82813 -1.875,0 -3.35937,-0.90625 -1.48438,-0.92188 -2.25,-2.5 -0.76563,-1.57813 -0.76563,-3.32813 z m 1.8125,0.0156 q 0,2.42187 1.29688,3.8125 1.29687,1.39062 3.26562,1.39062 2,0 3.28125,-1.40625 1.28125,-1.40625 1.28125,-3.98437 0,-1.625 -0.54687,-2.84375 -0.54688,-1.21875 -1.60938,-1.875 -1.0625,-0.67188 -2.375,-0.67188 -1.89062,0 -3.25,1.29688 -1.34375,1.28125 -1.34375,4.28125 z m 13.18329,6.48437 V 89.94533 h 2.65625 l 3.15625,9.45312 q 0.4375,1.32813 0.64063,1.98438 0.23437,-0.73438 0.70312,-2.14063 l 3.20313,-9.29687 h 2.375 v 13.35937 h -1.70313 V 92.13283 l -3.875,11.17187 h -1.59375 l -3.85937,-11.375 v 11.375 z m 20.56787,-11.46875 v -1.89062 h 1.64063 v 1.89062 z m 0,11.46875 v -9.67187 h 1.64063 v 9.67187 z m 4.14481,0 v -9.67187 h 1.46875 v 1.375 q 1.0625,-1.59375 3.07812,-1.59375 0.875,0 1.60938,0.3125 0.73437,0.3125 1.09375,0.82812 0.375,0.5 0.51562,1.20313 0.0937,0.45312 0.0937,1.59375 v 5.95312 h -1.64062 v -5.89062 q 0,-1 -0.20313,-1.48438 -0.1875,-0.5 -0.67187,-0.79687 -0.48438,-0.29688 -1.14063,-0.29688 -1.04687,0 -1.8125,0.67188 -0.75,0.65625 -0.75,2.51562 v 5.28125 z m 9.71948,-2.89062 1.625,-0.25 q 0.125,0.96875 0.75,1.5 0.625,0.51562 1.75,0.51562 1.125,0 1.67187,-0.45312 0.54688,-0.46875 0.54688,-1.09375 0,-0.54688 -0.48438,-0.875 -0.32812,-0.21875 -1.67187,-0.54688 -1.8125,-0.46875 -2.51563,-0.79687 -0.6875,-0.32813 -1.04687,-0.90625 -0.35938,-0.59375 -0.35938,-1.3125 0,-0.64063 0.29688,-1.1875 0.29687,-0.5625 0.8125,-0.92188 0.375,-0.28125 1.03125,-0.46875 0.67187,-0.20312 1.42187,-0.20312 1.14063,0 2,0.32812 0.85938,0.32813 1.26563,0.89063 0.42187,0.5625 0.57812,1.5 l -1.60937,0.21875 q -0.10938,-0.75 -0.64063,-1.17188 -0.51562,-0.42187 -1.46875,-0.42187 -1.14062,0 -1.625,0.375 -0.46875,0.375 -0.46875,0.875 0,0.3125 0.1875,0.57812 0.20313,0.26563 0.64063,0.4375 0.23437,0.0937 1.4375,0.42188 1.75,0.45312 2.4375,0.75 0.6875,0.29687 1.07812,0.85937 0.39063,0.5625 0.39063,1.40625 0,0.82813 -0.48438,1.54688 -0.46875,0.71875 -1.375,1.125 -0.90625,0.39062 -2.04687,0.39062 -1.875,0 -2.875,-0.78125 -0.98438,-0.78125 -1.25,-2.32812 z m 13.5625,1.42187 0.23437,1.45313 q -0.6875,0.14062 -1.23437,0.14062 -0.89063,0 -1.39063,-0.28125 -0.48437,-0.28125 -0.6875,-0.73437 -0.20312,-0.46875 -0.20312,-1.9375 v -5.57813 h -1.20313 v -1.26562 h 1.20313 V 91.2422 l 1.625,-0.98437 v 3.375 h 1.65625 v 1.26562 h -1.65625 v 5.67188 q 0,0.6875 0.0781,0.89062 0.0937,0.20313 0.28125,0.32813 0.20313,0.10937 0.57813,0.10937 0.26562,0 0.71875,-0.0625 z m 7.91766,0.28125 q -0.92187,0.76563 -1.76562,1.09375 -0.82813,0.3125 -1.79688,0.3125 -1.59375,0 -2.45312,-0.78125 -0.85938,-0.78125 -0.85938,-1.98437 0,-0.71875 0.32813,-1.29688 0.32812,-0.59375 0.84375,-0.9375 0.53125,-0.35937 1.1875,-0.54687 0.46875,-0.125 1.45312,-0.25 1.98438,-0.23438 2.92188,-0.5625 0.0156,-0.34375 0.0156,-0.42188 0,-1 -0.46875,-1.42187 -0.625,-0.54688 -1.875,-0.54688 -1.15625,0 -1.70312,0.40625 -0.54688,0.40625 -0.8125,1.42188 l -1.60938,-0.21875 q 0.21875,-1.01563 0.71875,-1.64063 0.5,-0.64062 1.45313,-0.98437 0.95312,-0.34375 2.1875,-0.34375 1.25,0 2.01562,0.29687 0.78125,0.28125 1.14063,0.73438 0.375,0.4375 0.51562,1.10937 0.0781,0.42188 0.0781,1.51563 v 2.1875 q 0,2.28125 0.10937,2.89062 0.10938,0.59375 0.40625,1.15625 h -1.70312 q -0.26563,-0.51562 -0.32813,-1.1875 z m -0.14062,-3.67187 q -0.89063,0.375 -2.67188,0.625 -1.01562,0.14062 -1.4375,0.32812 -0.42187,0.1875 -0.65625,0.53125 -0.21875,0.34375 -0.21875,0.78125 0,0.65625 0.5,1.09375 0.5,0.4375 1.45313,0.4375 0.9375,0 1.67187,-0.40625 0.75,-0.42187 1.09375,-1.14062 0.26563,-0.5625 0.26563,-1.64063 z m 4.20386,4.85937 v -9.67187 h 1.46875 v 1.375 q 1.0625,-1.59375 3.07812,-1.59375 0.875,0 1.60938,0.3125 0.73437,0.3125 1.09375,0.82812 0.375,0.5 0.51562,1.20313 0.0937,0.45312 0.0937,1.59375 v 5.95312 h -1.64062 v -5.89062 q 0,-1 -0.20313,-1.48438 -0.1875,-0.5 -0.67187,-0.79687 -0.48438,-0.29688 -1.14063,-0.29688 -1.04687,0 -1.8125,0.67188 -0.75,0.65625 -0.75,2.51562 v 5.28125 z m 16.68823,-3.54687 1.60937,0.21875 q -0.26562,1.65625 -1.35937,2.60937 -1.07813,0.9375 -2.67188,0.9375 -1.9844,0 -3.18753,-1.29687 -1.20312,-1.29688 -1.20312,-3.71875 0,-1.57813 0.51562,-2.75 0.51563,-1.17188 1.57813,-1.75 1.06253,-0.59375 2.31253,-0.59375 1.57812,0 2.57812,0.79687 1,0.79688 1.28125,2.26563 l -1.59375,0.23437 q -0.23437,-0.96875 -0.8125,-1.45312 -0.57812,-0.5 -1.39062,-0.5 -1.23438,0 -2.01566,0.89062 -0.78125,0.89063 -0.78125,2.8125 0,1.95313 0.75,2.84375 0.75003,0.875 1.95316,0.875 0.96875,0 1.60937,-0.59375 0.65625,-0.59375 0.82813,-1.82812 z m 9.64062,0.4375 1.6875,0.20312 q -0.40625,1.48438 -1.48437,2.3125 -1.07813,0.8125 -2.76563,0.8125 -2.125,0 -3.375,-1.29687 -1.23437,-1.3125 -1.23437,-3.67188 0,-2.45312 1.25,-3.79687 1.26562,-1.34375 3.26562,-1.34375 1.9375,0 3.15625,1.32812 1.23438,1.3125 1.23438,3.70313 0,0.15625 0,0.4375 h -7.21875 q 0.0937,1.59375 0.90625,2.45312 0.8125,0.84375 2.01562,0.84375 0.90625,0 1.54688,-0.46875 0.64062,-0.48437 1.01562,-1.51562 z m -5.39062,-2.65625 h 5.40625 q -0.10938,-1.21875 -0.625,-1.82813 -0.78125,-0.95312 -2.03125,-0.95312 -1.125,0 -1.90625,0.76562 -0.76563,0.75 -0.84375,2.01563 z" />
</svg>
